<?xml version="1.0" encoding="utf-8"?>
<!-- Generator: Adobe Illustrator 16.0.0, SVG Export Plug-In . SVG Version: 6.00 Build 0)  -->
<!DOCTYPE svg PUBLIC "-//W3C//DTD SVG 1.1//EN" "http://www.w3.org/Graphics/SVG/1.1/DTD/svg11.dtd">
<svg version="1.1" id="Menu" xmlns="http://www.w3.org/2000/svg" xmlns:xlink="http://www.w3.org/1999/xlink" x="0px" y="0px"
	 width="612px" height="792px" viewBox="0 0 612 792" enable-background="new 0 0 612 792" xml:space="preserve">
<path fill="#FFFFFF" d="M501.84,365.4H110.16c-16.891,0-18.36,13.678-18.36,30.6s1.469,30.6,18.36,30.6h391.68
	c16.892,0,18.36-13.678,18.36-30.6S518.731,365.4,501.84,365.4z M501.84,487.8H110.16c-16.891,0-18.36,13.679-18.36,30.601
	s1.469,30.6,18.36,30.6h391.68c16.892,0,18.36-13.678,18.36-30.6S518.731,487.8,501.84,487.8z M110.16,304.2h391.68
	c16.892,0,18.36-13.678,18.36-30.6s-1.469-30.6-18.36-30.6H110.16c-16.891,0-18.36,13.678-18.36,30.6S93.269,304.2,110.16,304.2z"/>
</svg>
